<svg version="1.0" xmlns="http://www.w3.org/2000/svg" width="933.333" height="933.333" viewBox="0 0 700 700"><path d="M225.5.9c-1.1.5-2.9 1.9-4 3.1-1.9 2.1-2 3.8-2.2 42.7l-.2 40.6-2.4 2.6c-2.8 2.9-3.3 4.4-4.2 11.6-.3 2.7-.8 5.7-1 6.5-.2.8-1.5 9.4-3 19-1.4 9.6-2.7 18.6-3 20-.2 1.4-1.3 9-2.5 17-1.1 8-2.3 15.6-2.5 16.9-.2 1.3-.7 4.5-1.1 7-.5 3.7-1.7 5.7-6 10.3-4.6 4.8-5.4 6.2-5.4 9.5 0 2.1.7 4.9 1.6 6.1 1.7 2.5 2 2-4.4 9.2-1.2 1.4-2.5 3.3-2.8 4.2-.3 1-.8 1.8-1.2 1.8-.4 0-1.8 1.8-3.2 4-1.9 3.1-2.9 3.9-4.5 3.4-2.9-.9-2.7-.9-6.2-.2-3.9.9-6.6 4.4-12.8 16.8-9.9 19.6-16.4 39.2-19 57-.4 2.4-.8 4.7-1 5-2.4 3.9-2.5 61.8-.1 65.9.2.3.7 3 1 6 .4 2.9.8 5.7 1.1 6.1.2.4.7 2.2 1 4.1.9 5.2 4.3 17.5 7.2 25.9 10.4 30 25.7 55.1 47.3 77.5 7 7.3 7.1 7.3 8.5 19.2.2 1.2.6 3.4.9 5 .3 1.5.8 4.8 1.1 7.3.3 2.5 1 7 1.5 10s1.1 7.5 1.4 10c.4 2.5 1 7 1.6 10 .5 3 1.1 7.1 1.4 9 4 29.9 5.3 36.1 8.2 39.1l2.5 2.6.2 40.6.2 40.7 2.8 2.7 2.7 2.8 74.6.3 74.6.2 3.5-3.5c1.9-1.9 3.2-3.9 2.9-4.4-1.2-1.8 1.7-2.3 14.1-2.4h12.5l1.8 4c2.7 6.1 4.3 6.4 36.5 6.3 27.4-.1 28.2-.2 30.8-2.3 1.5-1.2 3.1-3.6 3.5-5.2.4-1.7.8-20.3.7-41.4l-.1-38.4 2.7-2.6c2.6-2.6 3.6-6.3 5.4-20.1.3-2.5 1-7 1.5-10s1.2-7.5 1.5-10c.3-2.5 1-7 1.5-10 1.1-6.8 2-12.4 2.6-16.9.2-1.9.6-4.6.8-6 .3-1.4 1.4-8.8 2.6-16.4l2.2-13.8 6-6.2c3.3-3.4 8.7-9.6 12-13.7 3.3-4.1 6.5-8.2 7.2-9 3.4-4.3 15-23.8 19.1-32.1 6.1-12.4 14-34 15.9-43.3.2-.6.7-2.9 1.1-5.1.5-2.2 1-4.2 1-4.5.1-.3.4-1.9.8-3.5 4.1-17.2 4.2-58.7.1-78.5-.4-1.9-.8-4.1-1-4.9-1.8-9.4-7.5-28.9-9.4-32.3-.6-1-1-2.2-1-2.7 0-1.8-8.3-19.4-14.2-30-3-5.4-11.7-18-17.2-25.1-5.6-7.2-7.4-9.3-15.2-17.5-3-3.2-5.5-6.4-5.5-7.1-.1-.8-.2-1.7-.3-2.2-.1-.4-.6-3.2-1-6.2-.5-3-1-6.4-1.2-7.5-.3-1.1-.6-3.6-.9-5.5-.2-1.9-.6-4.9-.9-6.5-.8-4.7-4.6-29.9-5.1-34.2-.3-2.1-1-6.3-1.5-9.3-.5-3-1.2-7.5-1.5-10-1.8-13.7-2.8-17.5-5.4-20.1l-2.6-2.6V48.7c0-21.3-.4-40.1-.8-41.7-.5-1.9-2-3.9-4-5-3.1-2-5.8-2-125.7-1.9-67.4 0-123.4.4-124.5.8z"/></svg>